<?xml version="1.0" encoding="utf-8"?>
<!-- Generator: Adobe Illustrator 24.0.0, SVG Export Plug-In . SVG Version: 6.00 Build 0)  -->
<svg version="1.1" id="Layer_1" xmlns="http://www.w3.org/2000/svg" xmlns:xlink="http://www.w3.org/1999/xlink" x="0px" y="0px"
	 width="115.1px" height="16.1px" viewBox="0 0 115.1 16.1" style="enable-background:new 0 0 115.1 16.1;" xml:space="preserve">
<style type="text/css">
	.st0{fill:#FFF0F0;}
</style>
<path class="st0" d="M11.2,12.8H3.7L2.6,16H0L5.6,0h8.7L20,16h-7.6L11.2,12.8z M10.6,10.9l-3.1-9l-3.1,9H10.6z"/>
<path class="st0" d="M22,16V0h21.8c2.1,0,3.6,0.5,4.5,1.4c0.5,0.6,0.9,1.3,1.1,2.1s0.3,2,0.3,3.5c0,2.1,0,3.6-0.1,4.5
	s-0.3,1.6-0.6,2.2c-0.6,1.2-1.5,1.9-2.9,2.2c-0.8,0.2-1.4,0.2-2.1,0.2H22V16z M33,13.9h10.4c1.6,0,2.6-0.3,3.1-1
	c0.3-0.4,0.5-0.9,0.6-1.6c0.1-0.7,0.2-1.7,0.2-3.2c0-1.6,0-2.8-0.1-3.4s-0.3-1.2-0.6-1.6c-0.5-0.7-1.5-1-2.9-1H33V13.9z"/>
<path class="st0" d="M52.2,16V0h13.4c1.8,0,3.1,0.3,3.9,1s1.1,1.9,1.1,3.6c0,1.5-0.2,2.6-0.6,3.2s-1.1,1-2.3,1.2v0.1
	c1.8,0.1,2.6,1.2,2.6,3.1V16h-2.5v-0.4c0-1-0.2-1.7-0.7-2.1c-0.4-0.4-1.1-0.5-2-0.5H54.7v3H52.2L52.2,16z M54.7,8h10.4
	c1.1,0,1.8-0.2,2.2-0.5c0.3-0.2,0.5-0.5,0.6-0.8s0.2-0.8,0.2-1.5c0-0.9-0.1-1.6-0.2-2s-0.3-0.6-0.7-0.8c-0.4-0.2-1-0.3-1.8-0.3H54.7
	V8z"/>
<path class="st0" d="M79.2,0v16h-5.3V0H79.2z"/>
<path class="st0" d="M84.1,2.1v3.5h13.1v4.9H84.1V16h-2.4V0h15.9v2.1H84.1z"/>
<path class="st0" d="M110.2,2.2V16h-5.3V2.2H100V0h15.1v2.2H110.2z"/>
</svg>
