<?xml version="1.0" encoding="utf-8"?>
<!-- Generator: Adobe Illustrator 24.0.0, SVG Export Plug-In . SVG Version: 6.00 Build 0)  -->
<svg version="1.1" id="Layer_1" xmlns="http://www.w3.org/2000/svg" xmlns:xlink="http://www.w3.org/1999/xlink" x="0px" y="0px"
	 width="51.8px" height="16.1px" viewBox="0 0 51.8 16.1" style="enable-background:new 0 0 51.8 16.1;" xml:space="preserve">
<style type="text/css">
	.st0{fill:#FFF0F0;}
</style>
<g>
	<path class="st0" d="M6.2,10.3H5c0-0.4-0.1-0.8-0.2-0.9C4.7,9.2,4.5,9.1,4.3,9.1S3.7,9,3.3,9C2.5,9,1.9,9.1,1.7,9.2
		c-0.2,0.2-0.4,0.5-0.4,1c0,0.6,0.2,1,0.6,1.1c0.2,0.1,0.7,0.1,1.6,0.2c0.7,0,1.2,0.1,1.5,0.1c0.3,0.1,0.5,0.2,0.7,0.3
		c0.2,0.2,0.4,0.4,0.5,0.7s0.1,0.6,0.1,1.1c0,0.6-0.1,1-0.2,1.3s-0.3,0.6-0.6,0.7C5.3,15.8,5,15.9,4.6,16c-0.4,0.1-0.9,0.1-1.7,0.1
		c-0.6,0-1.1,0-1.4-0.1s-0.6-0.1-0.8-0.3c-0.3-0.2-0.6-0.5-0.6-1C0,14.4,0,14,0,13.5h1.2c0,0.6,0.1,0.9,0.2,1.2
		C1.5,14.9,1.7,15,1.9,15s0.6,0.1,1.3,0.1c0.8,0,1.4-0.1,1.6-0.2s0.3-0.6,0.3-1.2c0-0.6-0.2-0.9-0.5-1c-0.1-0.1-0.7-0.1-1.6-0.2
		c-0.7,0-1.2-0.1-1.4-0.1c-0.2,0-0.4-0.1-0.6-0.2c-0.3-0.2-0.6-0.4-0.7-0.7s-0.2-0.7-0.2-1.2c0-0.9,0.2-1.5,0.6-1.8
		c0.2-0.2,0.5-0.3,0.9-0.4C2,8,2.5,8,3.2,8C4,8,4.6,8.1,4.9,8.1c0.4,0.1,0.7,0.3,0.8,0.6C6.1,9,6.2,9.4,6.2,10V10.3L6.2,10.3z"/>
	<path class="st0" d="M10.4,9v2.4h3.9v0.9h-3.9V15h4.1v1H9.2V8h5.3v1H10.4L10.4,9z"/>
	<path class="st0" d="M22.2,14.4h-3.7L17.9,16h-1.3l2.8-8h1.8l2.8,8h-1.3L22.2,14.4z M21.9,13.5L20.3,9l-1.5,4.5H21.9z"/>
	<path class="st0" d="M26.6,16V8h3.9c0.9,0,1.6,0.2,1.9,0.5s0.5,1,0.5,1.8s-0.1,1.3-0.3,1.6s-0.6,0.5-1.1,0.6l0,0
		c0.9,0.1,1.3,0.6,1.3,1.5v2h-1.2v-1.6c0-0.5-0.1-0.9-0.3-1c-0.2-0.2-0.5-0.3-1-0.3h-2.4V16H26.6L26.6,16z M27.9,12h2.4
		c0.5,0,0.9-0.1,1.1-0.2c0.2-0.1,0.3-0.2,0.3-0.4c0.1-0.2,0.1-0.4,0.1-0.8c0-0.5,0-0.8-0.1-1s-0.2-0.3-0.3-0.4
		c-0.2-0.1-0.5-0.1-0.9-0.1h-2.6V12L27.9,12z"/>
	<path class="st0" d="M41.2,13.2h1.2v0.3c0,0.6,0,1-0.1,1.2c-0.1,0.3-0.2,0.5-0.4,0.7c-0.2,0.3-0.6,0.4-1.1,0.5
		C40.5,16,39.9,16,39.1,16c-0.6,0-1,0-1.3-0.1s-0.6-0.1-0.8-0.3c-0.3-0.2-0.6-0.4-0.8-0.7s-0.3-0.7-0.3-1.3c0-0.5-0.1-1.2-0.1-2.2
		c0-0.9,0-1.6,0.1-2s0.3-0.7,0.5-0.9c0.3-0.3,0.6-0.5,1-0.6s1.1-0.1,2.1-0.1c0.6,0,1,0,1.2,0.1c0.3,0,0.5,0.1,0.7,0.3
		c0.5,0.3,0.7,0.7,0.8,1.4c0,0.2,0,0.5,0,0.9H41c0-0.7-0.1-1.2-0.3-1.3C40.6,9.1,40.2,9,39.4,9c-0.6,0-1,0-1.3,0s-0.5,0.1-0.7,0.3
		s-0.3,0.3-0.3,0.5s-0.1,0.6-0.1,1c0,1.3,0,2.1,0,2.5c0,0.4,0.1,0.8,0.2,1c0.1,0.3,0.3,0.4,0.5,0.5s0.7,0.1,1.3,0.1
		c0.4,0,0.7,0,0.9,0s0.4-0.1,0.6-0.1c0.2,0,0.3-0.1,0.4-0.2c0.1-0.1,0.1-0.2,0.2-0.4c0-0.1,0-0.4,0-0.6
		C41.2,13.5,41.2,13.4,41.2,13.2z"/>
	<path class="st0" d="M51.8,8v8h-1.2v-3.6h-4.2V16h-1.2V8h1.2v3.4h4.2V8H51.8z"/>
</g>
</svg>
